<?xml version="1.0" encoding="UTF-8" standalone="no"?><svg width="32" height="33" viewBox="0 0 32 33" fill="none" xmlns="http://www.w3.org/2000/svg">
<path d="M30.3563 13.6563C29.9509 13.2007 29.5455 12.975 29.1066 12.975H21.8133L26.9709 7.81741C27.2885 7.49976 27.4348 7.05673 27.4181 6.46741C27.3972 5.84883 27.1046 5.26786 26.532 4.69526C25.9176 4.08086 25.299 3.75903 24.6428 3.71724C24.0326 3.6838 23.5854 3.80919 23.2761 4.11848L18.1185 9.27609V1.98689C18.1185 1.53967 17.9095 1.11753 17.479 0.716293C17.0276 0.294155 16.4132 0.0893555 15.5982 0.0893555C14.7289 0.0893555 14.0643 0.298335 13.5711 0.733012C13.1155 1.13843 12.8898 1.54385 12.8898 1.98271V9.27609L7.73224 4.11848C7.41459 3.80083 6.97155 3.65454 6.38223 3.67126C5.76365 3.69216 5.18269 3.98473 4.61009 4.55733C3.99569 5.17173 3.67386 5.79031 3.63206 6.44651C3.59862 7.05673 3.72401 7.50394 4.0333 7.81323L9.19091 12.9708H1.89753C1.45032 12.9708 1.02818 13.1798 0.626938 13.6103C0.2048 14.0617 0 14.6761 0 15.4911C0 16.3605 0.208979 17.025 0.643656 17.5182C1.04908 17.9738 1.4545 18.1995 1.89335 18.1995H9.18673L4.02912 23.3571C3.71147 23.6748 3.56519 24.1178 3.58191 24.7071C3.6028 25.3257 3.89538 25.9067 4.46798 26.4793C5.08238 27.0937 5.70096 27.4155 6.35715 27.4573C6.96737 27.4907 7.41459 27.3653 7.72388 27.0561L12.8815 21.8984V29.1918C12.8815 29.639 13.0905 30.0612 13.521 30.4624C13.9724 30.8846 14.5868 31.0894 15.4018 31.0894C16.2711 31.0894 16.9357 30.8804 17.4289 30.4457C17.8845 30.0403 18.1102 29.6349 18.1102 29.196V21.9026L23.2678 27.0602C23.5854 27.3779 24.0285 27.5242 24.6178 27.5074C25.2364 27.4865 25.8173 27.194 26.3899 26.6214C27.0043 26.007 27.3261 25.3884 27.3679 24.7322C27.4014 24.122 27.276 23.6748 26.9667 23.3655L21.8091 18.2079H29.1025C29.5497 18.2079 29.9718 17.9989 30.3731 17.5684C30.7952 17.117 31 16.5026 31 15.6876C31 14.8182 30.791 14.1537 30.3563 13.6605V13.6563Z" fill="#5B65CF"/>
</svg>
