<?xml version="1.0" encoding="UTF-8" standalone="no"?><svg width="486" height="310" viewBox="0 0 486 310" fill="none" xmlns="http://www.w3.org/2000/svg">
<g clip-path="url(#clip0_8243_105601)">
<path d="M475.127 239.8C468.751 232.654 462.409 229.135 455.54 229.135H341.421L422.124 148.508C427.09 143.546 429.418 136.584 429.093 127.403C428.759 117.738 424.219 108.674 415.206 99.6683C405.583 90.0538 395.91 85.0255 385.637 84.3668C376.073 83.8164 369.104 85.8094 364.239 90.6708L283.544 171.298V57.2744C283.544 50.2532 280.264 43.6907 273.538 37.4283C266.469 30.8324 256.838 27.6304 244.094 27.6304C230.491 27.6304 220.092 30.9075 212.356 37.7035C205.203 44.0743 201.681 50.4117 201.681 57.2744V171.306L120.979 90.6792C116.013 85.7176 109.045 83.3911 99.856 83.7164C90.1833 84.0416 81.1116 88.5861 72.0983 97.5919C62.4757 107.206 57.4432 116.863 56.7839 127.136C56.2331 136.692 58.2277 143.663 63.0933 148.516L143.788 229.143H29.6689C22.6418 229.143 16.0738 232.42 9.80617 239.141C3.20474 246.204 0 255.827 0 268.56C0 282.152 3.27984 292.542 10.0816 300.272C16.4577 307.418 22.8004 310.937 29.6689 310.937H143.796L63.0933 391.572C58.1276 396.534 55.7992 403.497 56.1246 412.677C56.4585 422.342 60.9985 431.406 70.0118 440.412C79.6344 450.026 89.307 455.055 99.5805 455.713C109.145 456.264 116.113 454.271 120.979 449.409L201.681 368.774V482.806C201.681 489.827 204.961 496.389 211.688 502.652C218.757 509.248 228.388 512.45 241.131 512.45C254.735 512.45 265.134 509.173 272.87 502.377C280.022 496.006 283.544 489.668 283.544 482.806V368.783L364.239 449.409C369.204 454.371 376.173 456.697 385.361 456.372C395.034 456.047 404.106 451.502 413.119 442.497C422.742 432.882 427.774 423.226 428.433 412.953C428.984 403.396 426.99 396.434 422.124 391.572L341.43 310.945H455.549C462.576 310.945 469.144 307.668 475.411 300.947C482.013 293.885 485.217 284.262 485.217 271.529C485.217 257.936 481.938 247.546 475.136 239.816L475.127 239.8Z" fill="#5B65CF"/>
<path d="M475.127 239.8C468.751 232.654 462.409 229.135 455.54 229.135H341.421L422.124 148.508C427.09 143.546 429.418 136.584 429.093 127.403C428.759 117.738 424.219 108.674 415.206 99.6683C405.583 90.0538 395.91 85.0255 385.637 84.3668C376.073 83.8164 369.104 85.8094 364.239 90.6708L283.544 171.298V57.2744C283.544 50.2532 280.264 43.6907 273.538 37.4283C266.469 30.8324 256.838 27.6304 244.094 27.6304C230.491 27.6304 220.092 30.9075 212.356 37.7035C205.203 44.0743 201.681 50.4117 201.681 57.2744V171.306L120.979 90.6792C116.013 85.7176 109.045 83.3911 99.856 83.7164C90.1833 84.0416 81.1116 88.5861 72.0983 97.5919C62.4757 107.206 57.4432 116.863 56.7839 127.136C56.2331 136.692 58.2277 143.663 63.0933 148.516L143.788 229.143H29.6689C22.6418 229.143 16.0738 232.42 9.80617 239.141C3.20474 246.204 0 255.827 0 268.56C0 282.152 3.27984 292.542 10.0816 300.272C16.4577 307.418 22.8004 310.937 29.6689 310.937H143.796L63.0933 391.572C58.1276 396.534 55.7992 403.497 56.1246 412.677C56.4585 422.342 60.9985 431.406 70.0118 440.412C79.6344 450.026 89.307 455.055 99.5805 455.713C109.145 456.264 116.113 454.271 120.979 449.409L201.681 368.774V482.806C201.681 489.827 204.961 496.389 211.688 502.652C218.757 509.248 228.388 512.45 241.131 512.45C254.735 512.45 265.134 509.173 272.87 502.377C280.022 496.006 283.544 489.668 283.544 482.806V368.783L364.239 449.409C369.204 454.371 376.173 456.697 385.361 456.372C395.034 456.047 404.106 451.502 413.119 442.497C422.742 432.882 427.774 423.226 428.433 412.953C428.984 403.396 426.99 396.434 422.124 391.572L341.43 310.945H455.549C462.576 310.945 469.144 307.668 475.411 300.947C482.013 293.885 485.217 284.262 485.217 271.529C485.217 257.936 481.938 247.546 475.136 239.816L475.127 239.8Z" fill="#5B65CF"/>
</g>
<defs>
<clipPath id="clip0_8243_105601">
<rect width="485.217" height="310" fill="white"/>
</clipPath>
</defs>
</svg>
